<svg width="1600" height="900" viewBox="0 0 1600 900" fill="none" xmlns="http://www.w3.org/2000/svg">
  <defs>
    <linearGradient id="bg" x1="0" y1="0" x2="1600" y2="900" gradientUnits="userSpaceOnUse">
      <stop stop-color="#081628" />
      <stop offset="1" stop-color="#0F2A49" />
    </linearGradient>
  </defs>
  <rect width="1600" height="900" fill="url(#bg)" />
  <circle cx="800" cy="450" r="130" fill="#11365B" stroke="#4FD1C5" stroke-width="3" />
  <text x="730" y="458" fill="#E8F4FF" font-family="Arial, sans-serif" font-size="32" font-weight="700">IMPULCIA</text>
  <g fill="#143B63" stroke="#2F6795">
    <rect x="160" y="160" width="300" height="110" rx="18" />
    <rect x="1140" y="160" width="300" height="110" rx="18" />
    <rect x="160" y="365" width="300" height="110" rx="18" />
    <rect x="1140" y="365" width="300" height="110" rx="18" />
    <rect x="160" y="570" width="300" height="110" rx="18" />
    <rect x="1140" y="570" width="300" height="110" rx="18" />
  </g>
  <g stroke="#4FD1C5" stroke-width="3">
    <line x1="460" y1="215" x2="670" y2="390" />
    <line x1="1140" y1="215" x2="930" y2="390" />
    <line x1="460" y1="420" x2="670" y2="445" />
    <line x1="1140" y1="420" x2="930" y2="445" />
    <line x1="460" y1="625" x2="670" y2="510" />
    <line x1="1140" y1="625" x2="930" y2="510" />
  </g>
  <g fill="#E8F4FF" font-family="Arial, sans-serif" font-size="22" font-weight="600">
    <text x="200" y="224">Transformation digitale</text>
    <text x="1178" y="224">Cloud &amp; infrastructure</text>
    <text x="214" y="429">ERP &amp; systèmes métiers</text>
    <text x="1200" y="429">Cybersécurité</text>
    <text x="210" y="634">Data &amp; BI</text>
    <text x="1168" y="634">Applications mobiles</text>
  </g>
</svg>
